<svg fill="white" xmlns="http://www.w3.org/2000/svg" height="20" width="20" viewBox="0 0 155.89 149.02"><g id="Layer_2" data-name="Layer 2"><g id="Layer_1-2" data-name="Layer 1"><path d="M124.87,0V53.35L91.13,0H82.05V61.87H72L49.13,0H0V149H24.25V100.81l17.09,38.28h7L65.4,99.86V149H92.83l5.39-15.64H127L132.37,149h23.52V0ZM56,46.19H33.71L44.84,13.78Zm45.47,77.67,11.19-32.42,11.13,32.42Zm45,15.7h-6.74l-22.8-61.93h-8.58l-22.8,61.93H75.17V77.63H65.78l-21,47.14L23.87,77.63h-9.4v61.93h-5V9.46H37.08L14.25,71.39H25.07l5.39-15.67H59.25l5.39,15.67H75.46l0-.07H92V18.82l33.64,52.5h9.21V9.46h11.63Z"/></g></g></svg>
