<svg width="128" height="17" viewBox="0 0 132 21" fill="white" xmlns="http://www.w3.org/2000/svg">
<g clip-path="url(#clip0_523_160)">
<path d="M0 2.92564V0.35631H15.4678V2.92564H9.24533V20.4433H6.25898V2.92564H0Z" />
<path d="M31.0451 0.35631H16.7898V3.00636L31.0451 2.92564V0.35631Z" />
<path d="M31.6851 18.0187V20.446H17.0705V18.0382H17.1687L31.6851 18.0187Z" />
<path d="M33.5403 20.4433V17.938L46.5635 2.90615H34.5844V0.35631H50.3778V2.88945L37.4978 17.8405H50.3048V20.4433H33.5403Z" />
<path d="M60.2911 20.8775C57.5087 20.8775 55.3803 20.099 53.9058 18.542C52.4314 16.985 51.6941 14.7664 51.6941 11.8863V0.35631H54.8236V11.8445C54.8236 13.3922 55.0753 14.6235 55.5787 15.5384C56.0112 16.3869 56.7121 17.0713 57.5742 17.487C58.4281 17.8669 59.3554 18.0569 60.2911 18.0437C61.2736 18.0626 62.2488 17.8728 63.1512 17.487C64.0027 17.0992 64.69 16.4273 65.0934 15.5885C65.5631 14.6718 65.797 13.4284 65.7951 11.8584V0.35631H68.9246V11.8807C68.9246 14.8054 68.1995 17.0323 66.7494 18.5615C65.2993 20.0907 63.1465 20.8627 60.2911 20.8775Z" />
<path d="M80.2722 20.8024C78.5057 20.8264 76.7593 20.4283 75.1808 19.6416C73.6555 18.8725 72.3981 17.6672 71.5713 16.1815C70.6956 14.6467 70.2578 12.7381 70.2578 10.4555C70.2578 8.17285 70.7013 6.26511 71.5882 4.73224C72.3976 3.22461 73.6441 1.99223 75.1667 1.19419C76.7861 0.375526 78.584 -0.0346372 80.4013 -5.92497e-07C83.0209 -5.92497e-07 85.1315 0.689421 86.7332 2.06827C88.3487 3.46601 89.4078 5.39002 89.7196 7.49364H86.6322C86.498 6.47734 86.0667 5.52224 85.3916 4.74615C84.7732 4.06813 83.995 3.55264 83.1266 3.24576C82.2518 2.93721 81.3298 2.78088 80.4013 2.78367C78.1222 2.78367 76.3596 3.43319 75.1134 4.73224C73.8672 6.03128 73.2479 7.87871 73.2554 10.2745C73.2554 12.7965 73.8672 14.7182 75.091 16.0395C76.3147 17.3608 78.053 18.0205 80.3058 18.0187C81.7751 18.0458 83.2221 17.6597 84.4794 16.9052C85.7032 16.1629 86.4591 14.9437 86.7473 13.2475H89.8768C89.531 15.3573 88.4576 17.2827 86.8399 18.6951C85.2344 20.0999 83.0452 20.8024 80.2722 20.8024Z" />
<path d="M90.9377 20.4433V0.356309H93.9212V10.2996L103.745 0.345175H107.629V0.748807L99.3158 8.62937L108.059 20.0424V20.4349H104.604L97.1125 10.667L93.91 13.7291V20.4433H90.9377Z" />
<path d="M108.668 20.4433L115.468 0.35631H120.408L127.341 20.4433H124.138L122.196 14.45H113.776L111.834 20.4433H108.668ZM117.986 1.60618L114.567 12.095H121.405L117.986 1.60618Z" />
<path d="M130.204 21C129.46 21 128.96 20.8163 128.711 20.4433C128.446 20.0337 128.314 19.554 128.332 19.0681C128.321 18.6057 128.453 18.1512 128.711 17.7654C128.96 17.3979 129.46 17.2086 130.204 17.2086C130.898 17.2086 131.371 17.3942 131.624 17.7654C131.88 18.1514 132.012 18.606 132 19.0681C132.023 19.5545 131.895 20.0361 131.635 20.4488C131.375 20.8163 130.898 21 130.204 21Z" />
<path d="M29.1394 9.4088H17.0705V12.1925H29.1394V9.4088Z" />
</g>
<defs>
<clipPath id="clip0_523_160">
<rect width="132" height="21"/>
</clipPath>
</defs>
</svg>
